<svg width="61" height="60" viewBox="0 0 61 60" fill="none" xmlns="http://www.w3.org/2000/svg">
<path fill-rule="evenodd" clip-rule="evenodd" d="M1 60H33C36.866 60 40 56.866 40 53V7C40 3.13401 36.866 0 33 0H1V60Z" fill="url(#paint0_linear_4_192)"/>
<path d="M0.969784 49.7234L31.9396 29.8617L0.969784 10V16.5V39.5V44.5V49.7234Z" fill="url(#paint1_linear_4_192)"/>
<path fill-rule="evenodd" clip-rule="evenodd" d="M1 42.6833C3.99603 42.6723 6.6489 41.7709 8.95922 39.9791C11.1221 38.2885 12.6084 36.1529 13.4182 33.5724H13.4184C11.9217 32.2875 10.3303 31.097 8.5354 30.0676C6.25571 28.7602 3.63906 27.7091 1 27.0041V42.6833ZM1 25.0957C3.95472 25.8402 6.89737 26.9992 9.45281 28.4647C11.0743 29.3946 12.5359 30.4465 13.897 31.5635C13.9065 31.507 13.9158 31.4504 13.9249 31.3937L14.0442 29.6177C13.9507 25.9097 12.6742 22.8247 10.2147 20.3626C7.762 17.9072 4.69042 16.6296 1 16.5297V25.0957Z" fill="#002277"/>
<path d="M2.45819 32.5445L2.57715 32.8832L2.9929 32.8884L2.66103 33.1228L2.79652 33.5093L2.46162 33.2632L2.13135 33.4964L2.2616 33.1153L1.93396 32.8745L2.34347 32.8797L2.45819 32.5445Z" fill="white"/>
<path d="M3.80565 36.7585L3.89477 36.9738L4.16455 36.9625L3.95768 37.1262L4.0593 37.3721L3.83327 37.2243L3.62741 37.3873L3.69839 37.1357L3.4774 36.9911L3.74295 36.9799L3.80565 36.7585Z" fill="white"/>
<path d="M4.83696 38.069L4.95572 38.4077L5.37168 38.4131L5.0398 38.6473L5.17529 39.0339L4.84039 38.7877L4.51013 39.0208L4.64038 38.64L4.31274 38.399L4.72204 38.4043L4.83696 38.069Z" fill="white"/>
<path d="M5.98785 37.1243L6.05841 37.3407L6.32194 37.3501L6.10821 37.4937L6.18846 37.7408L5.97978 37.5799L5.76706 37.7229L5.85517 37.4834L5.65092 37.326L5.91022 37.3352L5.98785 37.1243Z" fill="white"/>
<path d="M7.48835 37.8485L7.58936 38.1314L7.93717 38.1341L7.66054 38.3315L7.77567 38.6545L7.4944 38.4499L7.21898 38.6465L7.32644 38.3272L7.05122 38.127L7.39359 38.1295L7.48835 37.8485Z" fill="white"/>
<path d="M7.45065 39.2603L7.52949 39.4873L7.80773 39.4917L7.58514 39.6479L7.67506 39.907L7.45146 39.7415L7.22987 39.897L7.31778 39.6422L7.09882 39.4802L7.37282 39.4845L7.45065 39.2603Z" fill="white"/>
<path d="M7.42886 36.6266L7.5081 36.8453L7.77747 36.846L7.56415 37L7.65428 37.2495L7.43572 37.0922L7.2232 37.2454L7.30526 36.9978L7.09134 36.8439L7.35668 36.8446L7.42886 36.6266Z" fill="white"/>
<path d="M8.7836 36.8486L8.86748 37.0899L9.16306 37.0946L8.92656 37.2605L9.02212 37.5359L8.78441 37.3599L8.54871 37.5251L8.64246 37.2544L8.40999 37.0822L8.70114 37.0869L8.7836 36.8486Z" fill="white"/>
<path d="M9.81169 36.1127L9.92561 36.4047L10.2887 36.3969L10.0061 36.6114L10.1359 36.9448L9.83629 36.7399L9.55482 36.9534L9.65724 36.6169L9.36388 36.4164L9.72136 36.4087L9.81169 36.1127Z" fill="white"/>
<path d="M10.1236 33.7973L10.2424 34.136L10.6581 34.1413L10.3264 34.3756L10.4617 34.7623L10.1268 34.5161L9.79657 34.7492L9.92702 34.3683L9.59938 34.1273L10.0085 34.1326L10.1236 33.7973Z" fill="white"/>
<path d="M10.6218 35.0354L10.7267 35.3303L11.0892 35.3336L10.8009 35.539L10.9204 35.8756L10.6275 35.6621L10.3402 35.8667L10.4525 35.534L10.1658 35.3251L10.5228 35.3281L10.6218 35.0354Z" fill="white"/>
<path d="M11.911 34.1334L11.9905 34.3669L12.2764 34.3732L12.0469 34.532L12.1377 34.7987L11.909 34.6273L11.6806 34.7856L11.7725 34.5248L11.5487 34.357L11.83 34.3631L11.911 34.1334Z" fill="white"/>
<path d="M4.47869 28.7414L4.55409 28.976L4.83939 28.9871L4.60752 29.1419L4.69362 29.4096L4.4684 29.2348L4.23754 29.3888L4.33372 29.1298L4.11314 28.9588L4.3938 28.9695L4.47869 28.7414Z" fill="white"/>
<path d="M5.0767 25.2077L5.19546 25.5464L5.61121 25.5517L5.27954 25.786L5.41503 26.1726L5.08013 25.9265L4.74966 26.1596L4.88012 25.7788L4.55247 25.5378L4.96178 25.543L5.0767 25.2077Z" fill="white"/>
<path fill-rule="evenodd" clip-rule="evenodd" d="M1 27.0041C3.63906 27.7091 6.25571 28.7602 8.53539 30.0676C10.3303 31.097 11.9217 32.2875 13.4182 33.5723C13.6196 32.9302 13.7793 32.2607 13.897 31.5635C12.5361 30.4465 11.0743 29.3946 9.45279 28.4647C6.89735 26.9992 3.95471 25.8402 1 25.0957V27.0041Z" fill="white"/>
<path d="M5.98181 27.1195C5.90902 27.0934 5.83341 27.0813 5.75538 27.0835C5.6465 27.0872 5.54609 27.1172 5.45415 27.1742C5.36382 27.2305 5.29265 27.3072 5.24103 27.4043C5.18921 27.5011 5.16542 27.6037 5.16965 27.7117C5.17308 27.8184 5.20433 27.9182 5.2628 28.0112C5.32067 28.1037 5.3991 28.1765 5.49871 28.2296C5.52754 28.2452 5.55677 28.2581 5.58641 28.2688C5.6594 28.295 5.73481 28.3071 5.81284 28.3049C5.92172 28.3013 6.02193 28.271 6.11387 28.2143C6.20501 28.1569 6.27658 28.0792 6.3286 27.9813L6.37276 27.8986L5.82978 27.6085L5.73844 27.7799L6.09976 27.9727C6.03584 28.0445 5.9566 28.0883 5.86204 28.1043C5.79026 28.1158 5.7207 28.1093 5.65295 28.0849C5.63198 28.0772 5.61122 28.0681 5.59065 28.057C5.48843 28.0025 5.41987 27.9206 5.38519 27.8112C5.35051 27.7018 5.35979 27.5968 5.41342 27.4963C5.46705 27.3956 5.54891 27.3294 5.659 27.2973C5.74711 27.2716 5.8328 27.2739 5.91587 27.3037C5.93664 27.3112 5.9572 27.3203 5.97737 27.3312C6.05983 27.3752 6.12032 27.4396 6.15883 27.5242L6.1667 27.5423L6.35501 27.4769L6.34654 27.4567C6.28848 27.3257 6.19613 27.2262 6.06951 27.1586C6.04068 27.1433 6.01144 27.1304 5.98181 27.1195Z" fill="#079F3D"/>
<path d="M8.49184 28.312L7.92305 29.3503L8.70496 29.7796L8.7965 29.6123L8.18194 29.2748L8.34142 28.9835L8.82311 29.2479L8.91122 29.0872L8.42933 28.8228L8.56725 28.5711L9.182 28.9084L9.27354 28.7411L8.49184 28.312Z" fill="#079F3D"/>
<path d="M10.2962 29.3355C10.2041 29.2921 10.1131 29.277 10.023 29.2905C9.92783 29.3044 9.85645 29.3478 9.80846 29.4201C9.78084 29.4617 9.76531 29.5091 9.76209 29.562C9.75846 29.6137 9.76673 29.6657 9.78709 29.7182C9.81713 29.7911 9.88367 29.8696 9.9869 29.9542C10.0238 29.9836 10.0553 30.0161 10.0817 30.0521C10.1081 30.088 10.1252 30.1213 10.1329 30.1522C10.1411 30.1859 10.1373 30.2148 10.1216 30.2386C10.1063 30.2616 10.0823 30.2767 10.0492 30.2842C10.0159 30.2915 9.97783 30.29 9.93448 30.2797C9.90988 30.2737 9.88589 30.2652 9.8623 30.2541C9.84435 30.2456 9.82681 30.2357 9.80967 30.2242C9.77056 30.1984 9.7383 30.1677 9.71269 30.1322C9.68708 30.0969 9.67176 30.0622 9.66611 30.0278C9.66027 29.9943 9.6639 29.9657 9.67761 29.9417L9.68628 29.9255L9.5282 29.8203L9.51732 29.8369C9.46429 29.9207 9.45582 30.0155 9.49191 30.1217C9.5278 30.2265 9.59837 30.3137 9.70382 30.3837C9.73124 30.4021 9.75886 30.4178 9.78669 30.4307C9.86694 30.4689 9.94859 30.4852 10.0313 30.48C10.1424 30.4731 10.2248 30.4291 10.2785 30.3482C10.3071 30.3048 10.3226 30.2557 10.3248 30.2006C10.3279 30.1463 10.317 30.0914 10.2926 30.0359C10.2742 29.9953 10.2484 29.9576 10.2155 29.9223C10.1835 29.8874 10.1413 29.8484 10.0893 29.8052C10.0127 29.7396 9.96775 29.6754 9.95444 29.6126C9.94779 29.5801 9.95243 29.5519 9.96815 29.5281C9.99134 29.4932 10.0331 29.4756 10.0934 29.4752C10.1355 29.475 10.1772 29.4849 10.219 29.5045C10.2353 29.5123 10.2518 29.5216 10.2684 29.5325C10.326 29.5709 10.3664 29.6173 10.3891 29.6716C10.4123 29.7251 10.4133 29.7699 10.392 29.8058L10.3817 29.8212L10.5412 29.9271L10.5513 29.9118C10.5984 29.8389 10.6099 29.756 10.5859 29.6627C10.5619 29.5697 10.5075 29.4875 10.4224 29.4163C10.4067 29.4033 10.3893 29.3906 10.3706 29.3781C10.3529 29.3662 10.3343 29.3553 10.3154 29.3452C10.3091 29.3418 10.3026 29.3385 10.2962 29.3355Z" fill="#079F3D"/>
<path d="M11.611 30.2533C11.5191 30.2099 11.4279 30.1948 11.3378 30.2081C11.2428 30.2222 11.1713 30.2654 11.1233 30.3379C11.0956 30.3795 11.0803 30.4269 11.0769 30.4798C11.0733 30.5312 11.0817 30.5833 11.1019 30.636C11.1319 30.7087 11.1987 30.7874 11.3017 30.872C11.3386 30.9012 11.3703 30.9339 11.3967 30.9699C11.4231 31.0058 11.44 31.0391 11.4477 31.07C11.456 31.1037 11.4521 31.1323 11.4364 31.1562C11.4213 31.1792 11.3971 31.1945 11.364 31.2018C11.3309 31.2092 11.2926 31.2078 11.2495 31.1973C11.2247 31.1915 11.2007 31.183 11.1771 31.1719C11.1594 31.1634 11.1418 31.1535 11.1245 31.142C11.0854 31.116 11.0531 31.0853 11.0275 31.05C11.0021 31.0147 10.9866 30.9797 10.9811 30.9456C10.9751 30.9121 10.9789 30.8835 10.9924 30.8594L11.0013 30.8431L10.8432 30.7381L10.8321 30.7547C10.7791 30.8385 10.7706 30.9333 10.8069 31.0393C10.8426 31.1442 10.9134 31.2314 11.0186 31.3015C11.0462 31.3197 11.0739 31.3354 11.1015 31.3485C11.1819 31.3867 11.2634 31.403 11.3461 31.3978C11.4572 31.3907 11.5396 31.3467 11.5933 31.266C11.6221 31.2226 11.6376 31.1733 11.6396 31.1184C11.6427 31.0641 11.632 31.0092 11.6076 30.9537C11.589 30.9131 11.5634 30.8752 11.5304 30.8399C11.4985 30.8051 11.4564 30.7662 11.4041 30.723C11.3277 30.6574 11.2828 30.5932 11.2692 30.5302C11.2628 30.4977 11.2672 30.4697 11.2832 30.4459C11.3061 30.4109 11.3479 30.3932 11.4082 30.3928C11.4503 30.3928 11.4922 30.4025 11.5338 30.4222C11.5503 30.4301 11.5666 30.4394 11.5832 30.4503C11.6408 30.4887 11.6812 30.5351 11.704 30.5894C11.7273 30.6429 11.7281 30.6877 11.7068 30.7236L11.6967 30.7389L11.856 30.8449L11.8661 30.8296C11.9132 30.7567 11.9247 30.6735 11.9007 30.5805C11.8769 30.4874 11.8223 30.4053 11.7374 30.334C11.7215 30.3209 11.7042 30.3082 11.6856 30.2959C11.6677 30.284 11.6493 30.2729 11.6304 30.2628C11.6239 30.2596 11.6175 30.2563 11.611 30.2533Z" fill="#079F3D"/>
<path d="M2.4467 25.8032L2.02369 26.9624L2.21019 27.0308L2.34549 26.66L2.46606 26.704L2.75418 27.2297L3.02013 27.3269L2.74067 26.7777C2.8431 26.7864 2.93484 26.7666 3.01569 26.7184C3.09553 26.6697 3.15118 26.6023 3.18284 26.5159C3.21832 26.4188 3.21409 26.3205 3.17034 26.2212C3.12719 26.1231 3.0542 26.0468 2.95077 25.9925C2.93383 25.9841 2.91468 25.9754 2.89351 25.9665L2.4467 25.8032ZM2.56526 26.0583L2.81649 26.1502C2.88605 26.1756 2.93786 26.2178 2.97174 26.2769C3.00622 26.3351 3.01287 26.3926 2.9921 26.4495C2.97133 26.5064 2.92899 26.5464 2.86488 26.5698C2.81628 26.5868 2.76588 26.59 2.71366 26.5791C2.69753 26.5757 2.6814 26.571 2.66507 26.5652L2.41384 26.4731L2.56526 26.0583Z" fill="#079F3D"/>
<path d="M4.50086 26.5204C4.36638 26.4568 4.22746 26.4441 4.08451 26.4824C3.93853 26.5216 3.8238 26.6039 3.74033 26.7299C3.67984 26.8209 3.64657 26.9202 3.64032 27.0276C3.63367 27.1334 3.65504 27.2351 3.70424 27.3328C3.75242 27.4299 3.8234 27.5094 3.91675 27.5716C3.94377 27.5895 3.9716 27.6053 3.99982 27.6186C4.06938 27.6515 4.14297 27.6707 4.2204 27.6759C4.32867 27.6828 4.4309 27.6624 4.52708 27.615C4.62204 27.5677 4.69987 27.4987 4.76015 27.4077C4.84363 27.2817 4.87488 27.1431 4.85391 26.9919C4.83334 26.8421 4.76459 26.7168 4.64785 26.6158C4.62708 26.5973 4.60571 26.5805 4.58353 26.5658C4.56196 26.5514 4.53857 26.5383 4.51397 26.5266C4.51357 26.5266 4.51316 26.5262 4.51276 26.5262C4.50872 26.5242 4.5047 26.5222 4.50086 26.5204ZM4.41799 26.695C4.43755 26.7042 4.45711 26.7153 4.47626 26.7281C4.57224 26.7918 4.63212 26.8794 4.65632 26.9911C4.68011 27.1027 4.66095 27.2056 4.59825 27.3001C4.53574 27.3946 4.44824 27.4523 4.33633 27.4735C4.24661 27.4904 4.16193 27.4801 4.08249 27.4426C4.06293 27.4331 4.04337 27.4222 4.02422 27.4095C3.92825 27.3457 3.86816 27.2579 3.84417 27.1465C3.82037 27.0349 3.83953 26.9319 3.90224 26.8375C3.96474 26.743 4.05225 26.6853 4.16415 26.6641C4.25387 26.6471 4.33835 26.6574 4.41799 26.695Z" fill="#079F3D"/>
<path d="M7.07139 27.5934L6.55119 28.649L6.72117 28.733L6.88751 28.3953L6.99719 28.4496L7.21636 28.9774L7.45851 29.0971L7.25003 28.5477C7.34621 28.5663 7.43512 28.557 7.51678 28.5194C7.59763 28.4817 7.65732 28.4236 7.69603 28.3448C7.73958 28.2564 7.74583 28.163 7.71458 28.0641C7.68373 27.9668 7.62223 27.8868 7.52969 27.8247C7.51456 27.815 7.49743 27.8047 7.47807 27.7942L7.07139 27.5934ZM7.15749 27.8473L7.38633 27.9605C7.44964 27.9916 7.4944 28.037 7.52041 28.0966C7.54703 28.1553 7.54763 28.2104 7.52202 28.2623C7.49662 28.3142 7.45226 28.3479 7.38915 28.3632C7.34117 28.3745 7.29318 28.3721 7.24479 28.3565C7.22987 28.3517 7.21495 28.3456 7.20003 28.3382L6.97138 28.2251L7.15749 27.8473Z" fill="#079F3D"/>
<path d="M12.8724 31.2411C12.7379 31.1776 12.5992 31.165 12.456 31.2032C12.3101 31.2424 12.1953 31.3249 12.1119 31.4509C12.0516 31.5417 12.0183 31.641 12.0119 31.7484C12.0054 31.8544 12.0266 31.9561 12.0758 32.0538C12.1242 32.1509 12.1949 32.2304 12.2885 32.2926C12.3155 32.3105 12.3431 32.3261 12.3714 32.3394C12.4411 32.3725 12.5147 32.3915 12.5921 32.3967C12.7002 32.4036 12.8024 32.3834 12.8988 32.3358C12.9938 32.2885 13.0714 32.2195 13.1319 32.1285C13.2154 32.0025 13.2466 31.864 13.2256 31.7129C13.2049 31.5631 13.1361 31.4377 13.0194 31.3368C12.9988 31.318 12.9774 31.3015 12.9553 31.2868C12.9335 31.2724 12.9103 31.2593 12.8855 31.2476C12.8851 31.2474 12.8847 31.2472 12.8843 31.247C12.8803 31.245 12.8764 31.2432 12.8724 31.2411ZM12.7895 31.4157C12.8093 31.4252 12.8286 31.4361 12.8478 31.4488C12.9438 31.5126 13.0039 31.6004 13.0279 31.7118C13.0518 31.8235 13.0325 31.9264 12.9698 32.0209C12.9073 32.1153 12.82 32.1733 12.7081 32.1943C12.6183 32.2112 12.5337 32.2009 12.4542 32.1634C12.4345 32.1541 12.4149 32.143 12.396 32.1303C12.2998 32.0665 12.2399 31.9789 12.2159 31.8673C12.1919 31.7559 12.2113 31.6527 12.2738 31.5584C12.3365 31.4638 12.4238 31.4061 12.5357 31.3849C12.6254 31.3679 12.7101 31.3782 12.7895 31.4157Z" fill="#079F3D"/>
<path fill-rule="evenodd" clip-rule="evenodd" d="M1 35.9105L1.26072 36.1022L1.12523 35.7156L1.4571 35.4813L1.04115 35.4759L1 35.3586V35.9105Z" fill="white"/>
<path fill-rule="evenodd" clip-rule="evenodd" d="M1 26.2635L1.09862 26.2905C1.12443 26.2977 1.14983 26.3028 1.17504 26.3058C1.2692 26.3173 1.35832 26.301 1.44239 26.2561C1.54845 26.2006 1.6164 26.1181 1.64644 26.0083C1.67366 25.9084 1.66156 25.8109 1.60954 25.7152C1.55853 25.6211 1.47969 25.5513 1.37303 25.5059C1.35428 25.4986 1.33452 25.4915 1.31375 25.4847L1 25.3988V25.6053L1.25226 25.6744C1.32384 25.694 1.37949 25.7319 1.41921 25.7883C1.45832 25.8434 1.46981 25.9003 1.45388 25.9586C1.43796 26.0172 1.39844 26.0606 1.33553 26.0888C1.28835 26.1098 1.23835 26.1171 1.18532 26.1106C1.16899 26.1088 1.15246 26.1054 1.13572 26.1007L1 26.0636V26.2635Z" fill="#079F3D"/>
<defs>
<linearGradient id="paint0_linear_4_192" x1="20.5" y1="0" x2="20.5" y2="60" gradientUnits="userSpaceOnUse">
<stop stop-color="#079F3D"/>
<stop offset="1" stop-color="#046B28"/>
</linearGradient>
<linearGradient id="paint1_linear_4_192" x1="0.969776" y1="10" x2="0.969776" y2="49.7234" gradientUnits="userSpaceOnUse">
<stop stop-color="#FEE000"/>
<stop offset="1" stop-color="#AB9807"/>
</linearGradient>
</defs>
</svg>
