<svg width="125" height="70" viewBox="0 0 125 70" fill="none" xmlns="http://www.w3.org/2000/svg">
<path d="M58 3.20559C58 1.98747 58.9875 1 60.2056 1H118C121.866 1 125 4.13401 125 8V54C125 57.866 121.866 61 118 61H57.8392C52.887 61 49.5007 55.9983 51.3399 51.4003L54.8983 42.5041C55.2942 41.5145 55.9109 40.6283 56.7013 39.9131L65.3547 32.0838C65.7833 31.6961 66.1621 31.2568 66.4827 30.776L72.1067 22.34C73.3017 20.5475 73.6047 18.3047 72.9284 16.2594L71.2998 11.3343C70.5152 8.96141 68.5249 7.18686 66.0778 6.67841L59.7569 5.36505C58.7336 5.15242 58 4.25076 58 3.20559V3.20559Z" fill="url(#paint0_linear_3_375)"/>
<path d="M85.9698 50.7234L116.94 30.8617L85.9698 11L70.4849 20.9309L66.5 28.5L61.5 35L85.9698 50.7234Z" fill="url(#paint1_linear_3_375)"/>
<path d="M78.5669 26.9951C76.6266 26.9951 74.8372 27.1849 73.3123 27.394C73.0629 28.4105 72.924 29.4849 72.8955 30.6177C72.899 31.8259 73.0546 32.9857 73.3625 34.0971L73.923 35.7123C74.3674 36.7597 74.933 37.7275 75.6197 38.6157C77.7626 41.3635 80.6212 43.0204 84.1957 43.5868C84.7911 43.6512 85.374 43.6834 85.9446 43.6834C88.9633 43.6834 91.6347 42.7819 93.9592 40.9791C96.1221 39.2885 97.6084 37.1529 98.4182 34.5725H98.4184C96.9217 33.2875 95.3303 32.097 93.5354 31.0676C89.8134 28.9331 85.1931 27.4816 81.0437 27.1045C80.1976 27.0276 79.3694 26.9951 78.5669 26.9951Z" fill="#002277"/>
<path d="M85.9698 17.5289C82.2659 17.6226 79.1843 18.9005 76.7248 21.3626C75.5151 22.5737 74.5916 23.9356 73.9543 25.448C75.3229 25.2819 76.8851 25.1478 78.5669 25.1478C79.4206 25.1478 80.3049 25.1824 81.2106 25.2647C85.626 25.666 90.5021 27.199 94.4528 29.4647C96.0743 30.3946 97.5359 31.4465 98.897 32.5635C98.9065 32.507 98.9158 32.4504 98.9249 32.3937L99.0442 30.6177C98.9507 26.9098 97.6742 23.8247 95.2147 21.3626C92.7553 18.9005 89.6737 17.6226 85.9698 17.5289Z" fill="#002277"/>
<path d="M78.5669 25.1479C76.8849 25.1479 75.3227 25.2819 73.9539 25.448H73.9543C73.6915 26.0711 73.4776 26.7198 73.3123 27.394C74.8374 27.1849 76.6266 26.9952 78.5669 26.9952C79.3693 26.9952 80.1976 27.0276 81.0436 27.1046C85.1931 27.4816 89.8134 28.9331 93.5354 31.0676C95.3303 32.097 96.9217 33.2875 98.4182 34.5723C98.6196 33.9302 98.7793 33.2607 98.897 32.5635C97.5361 31.4465 96.0743 30.3946 94.4528 29.4647C90.5021 27.199 85.626 25.666 81.2106 25.2647C80.3049 25.1824 79.4206 25.1479 78.5669 25.1479Z" fill="white"/>
<path d="M83.2664 25.9001L83.0976 27.0575L83.969 27.1849L83.9963 26.9984L83.3111 26.8983L83.3583 26.5737L83.8952 26.652L83.9215 26.473L83.3845 26.3944L83.4255 26.1139L84.1106 26.214L84.1378 26.0275L83.2664 25.9001Z" fill="#079F3D"/>
<path d="M90.9818 28.1194C90.909 28.0934 90.8334 28.0813 90.7554 28.0835C90.6465 28.0871 90.5461 28.1172 90.4541 28.1741C90.3638 28.2305 90.2926 28.3072 90.241 28.4042C90.1892 28.5011 90.1654 28.6037 90.1697 28.7117C90.1731 28.8184 90.2043 28.9181 90.2628 29.0112C90.3207 29.1036 90.3991 29.1765 90.4987 29.2296C90.5275 29.2451 90.5568 29.2581 90.5864 29.2688C90.6594 29.295 90.7348 29.3071 90.8128 29.3049C90.9217 29.3013 91.0219 29.271 91.1139 29.2143C91.205 29.1569 91.2766 29.0792 91.3286 28.9813L91.3728 28.8986L90.8298 28.6085L90.7384 28.7799L91.0998 28.9726C91.0358 29.0445 90.9566 29.0883 90.862 29.1043C90.7903 29.1158 90.7207 29.1093 90.653 29.0849C90.632 29.0772 90.6112 29.0681 90.5907 29.057C90.4884 29.0025 90.4199 28.9206 90.3852 28.8112C90.3505 28.7018 90.3598 28.5968 90.4134 28.4963C90.4671 28.3956 90.5489 28.3294 90.659 28.2973C90.7471 28.2716 90.8328 28.2739 90.9159 28.3037C90.9366 28.3112 90.9572 28.3203 90.9774 28.3312C91.0598 28.3752 91.1203 28.4396 91.1588 28.5241L91.1667 28.5423L91.355 28.4769L91.3465 28.4567C91.2885 28.3257 91.1961 28.2262 91.0695 28.1586C91.0407 28.1433 91.0114 28.1303 90.9818 28.1194Z" fill="#079F3D"/>
<path d="M93.4918 29.3119L92.923 30.3502L93.705 30.7796L93.7965 30.6122L93.1819 30.2748L93.3414 29.9835L93.8231 30.2479L93.9112 30.0872L93.4293 29.8228L93.5672 29.5711L94.182 29.9084L94.2735 29.7411L93.4918 29.3119Z" fill="#079F3D"/>
<path d="M95.2962 30.3355C95.2041 30.2921 95.1131 30.277 95.023 30.2905C94.9278 30.3044 94.8564 30.3478 94.8085 30.4201C94.7808 30.4617 94.7653 30.5091 94.7621 30.562C94.7585 30.6136 94.7667 30.6657 94.7871 30.7182C94.8171 30.7911 94.8837 30.8696 94.9869 30.9542C95.0238 30.9836 95.0553 31.0161 95.0817 31.0521C95.1081 31.088 95.1252 31.1213 95.1329 31.1522C95.1411 31.1859 95.1373 31.2147 95.1216 31.2386C95.1063 31.2616 95.0823 31.2767 95.0492 31.2842C95.0159 31.2914 94.9778 31.29 94.9345 31.2797C94.9099 31.2737 94.8859 31.2652 94.8623 31.2541C94.8444 31.2456 94.8268 31.2357 94.8097 31.2242C94.7706 31.1984 94.7383 31.1677 94.7127 31.1322C94.6871 31.0969 94.6718 31.0621 94.6661 31.0278C94.6603 30.9943 94.6639 30.9657 94.6776 30.9416L94.6863 30.9255L94.5282 30.8203L94.5173 30.8369C94.4643 30.9207 94.4558 31.0155 94.4919 31.1217C94.5278 31.2265 94.5984 31.3136 94.7038 31.3837C94.7312 31.4021 94.7589 31.4178 94.7867 31.4307C94.8669 31.4689 94.9486 31.4852 95.0313 31.48C95.1424 31.4731 95.2248 31.4291 95.2785 31.3482C95.3071 31.3048 95.3226 31.2557 95.3248 31.2006C95.3279 31.1463 95.317 31.0914 95.2926 31.0359C95.2742 30.9953 95.2484 30.9576 95.2155 30.9223C95.1835 30.8873 95.1413 30.8484 95.0893 30.8052C95.0127 30.7396 94.9677 30.6754 94.9544 30.6126C94.9478 30.5801 94.9524 30.5519 94.9682 30.5281C94.9913 30.4931 95.0331 30.4756 95.0934 30.4752C95.1355 30.475 95.1772 30.4849 95.219 30.5044C95.2353 30.5123 95.2518 30.5216 95.2684 30.5325C95.326 30.5709 95.3664 30.6173 95.3891 30.6716C95.4123 30.7251 95.4133 30.7699 95.392 30.8058L95.3817 30.8211L95.5412 30.9271L95.5513 30.9118C95.5984 30.8389 95.6099 30.7559 95.5859 30.6627C95.5619 30.5696 95.5075 30.4875 95.4224 30.4162C95.4067 30.4033 95.3893 30.3906 95.3706 30.3781C95.3529 30.3662 95.3343 30.3553 95.3154 30.3452C95.3091 30.3418 95.3026 30.3385 95.2962 30.3355Z" fill="#079F3D"/>
<path d="M96.611 31.2533C96.5191 31.2099 96.4279 31.1948 96.3378 31.2081C96.2428 31.2222 96.1713 31.2654 96.1233 31.3379C96.0956 31.3794 96.0803 31.4269 96.0769 31.4798C96.0733 31.5312 96.0817 31.5833 96.1019 31.636C96.1319 31.7087 96.1987 31.7874 96.3017 31.8719C96.3386 31.9012 96.3703 31.9339 96.3967 31.9698C96.4231 32.0058 96.44 32.0391 96.4477 32.07C96.456 32.1037 96.4521 32.1323 96.4364 32.1561C96.4213 32.1792 96.3971 32.1945 96.364 32.2018C96.3309 32.2092 96.2926 32.2078 96.2495 32.1973C96.2247 32.1915 96.2007 32.183 96.1771 32.1719C96.1594 32.1634 96.1418 32.1535 96.1245 32.142C96.0854 32.116 96.0531 32.0853 96.0275 32.05C96.0021 32.0147 95.9866 31.9797 95.9811 31.9456C95.9751 31.9121 95.9789 31.8835 95.9924 31.8594L96.0013 31.8431L95.8432 31.7381L95.8321 31.7547C95.7791 31.8384 95.7706 31.9333 95.8069 32.0393C95.8426 32.1442 95.9134 32.2314 96.0186 32.3015C96.0462 32.3196 96.0739 32.3354 96.1015 32.3485C96.1819 32.3867 96.2634 32.403 96.3461 32.3978C96.4572 32.3907 96.5396 32.3467 96.5933 32.266C96.6221 32.2226 96.6376 32.1733 96.6396 32.1184C96.6427 32.0641 96.632 32.0092 96.6076 31.9537C96.589 31.9131 96.5634 31.8752 96.5304 31.8399C96.4985 31.8051 96.4564 31.7662 96.4041 31.723C96.3277 31.6574 96.2828 31.5932 96.2692 31.5302C96.2628 31.4977 96.2672 31.4697 96.2832 31.4458C96.3061 31.4109 96.3479 31.3932 96.4082 31.3928C96.4503 31.3928 96.4922 31.4025 96.5338 31.4222C96.5503 31.4301 96.5666 31.4394 96.5832 31.4503C96.6408 31.4886 96.6812 31.5351 96.704 31.5894C96.7273 31.6429 96.7281 31.6877 96.7068 31.7236L96.6967 31.7389L96.856 31.8449L96.8661 31.8296C96.9132 31.7567 96.9247 31.6735 96.9007 31.5805C96.8769 31.4874 96.8223 31.4053 96.7374 31.334C96.7215 31.3209 96.7042 31.3082 96.6856 31.2959C96.6677 31.284 96.6493 31.2729 96.6304 31.2628C96.6239 31.2595 96.6175 31.2563 96.611 31.2533Z" fill="#079F3D"/>
<path d="M85.853 26.3585L85.5274 27.5502L85.7194 27.6029L85.825 27.2158L86.0986 27.2904C86.1244 27.2977 86.1498 27.3028 86.175 27.3058C86.2692 27.3173 86.3583 27.3009 86.4424 27.2561C86.5484 27.2006 86.6164 27.1181 86.6464 27.0083C86.6737 26.9084 86.6616 26.8109 86.6095 26.7152C86.5585 26.6211 86.4797 26.5513 86.373 26.5059C86.3543 26.4986 86.3345 26.4915 86.3138 26.4847L85.853 26.3585ZM85.9924 26.6032L86.2523 26.6744C86.3238 26.694 86.3795 26.7319 86.4192 26.7883C86.4583 26.8434 86.4698 26.9003 86.4539 26.9586C86.438 27.0171 86.3984 27.0605 86.3355 27.0888C86.2884 27.1098 86.2383 27.1171 86.1853 27.1106C86.169 27.1088 86.1525 27.1054 86.1357 27.1007L85.8758 27.0297L85.9924 26.6032Z" fill="#079F3D"/>
<path d="M87.4467 26.8032L87.0237 27.9624L87.2102 28.0308L87.3455 27.66L87.4661 27.704L87.7542 28.2296L88.0201 28.3269L87.7407 27.7777C87.8431 27.7864 87.9348 27.7666 88.0157 27.7184C88.0955 27.6697 88.1512 27.6023 88.1828 27.5159C88.2183 27.4188 88.2141 27.3205 88.1703 27.2212C88.1272 27.1231 88.0542 27.0468 87.9508 26.9925C87.9338 26.984 87.9147 26.9754 87.8935 26.9665L87.4467 26.8032ZM87.5653 27.0583L87.8165 27.1502C87.886 27.1756 87.9379 27.2178 87.9717 27.2769C88.0062 27.3351 88.0129 27.3926 87.9921 27.4495C87.9713 27.5064 87.929 27.5464 87.8649 27.5698C87.8163 27.5868 87.7659 27.59 87.7137 27.5791C87.6975 27.5757 87.6814 27.571 87.6651 27.5652L87.4138 27.4731L87.5653 27.0583Z" fill="#079F3D"/>
<path d="M89.5009 27.5203C89.3664 27.4568 89.2275 27.4441 89.0845 27.4824C88.9385 27.5216 88.8238 27.6039 88.7403 27.7299C88.6798 27.8209 88.6466 27.9202 88.6403 28.0276C88.6337 28.1334 88.655 28.2351 88.7042 28.3328C88.7524 28.4299 88.8234 28.5094 88.9168 28.5716C88.9438 28.5895 88.9716 28.6053 88.9998 28.6186C89.0694 28.6515 89.143 28.6707 89.2204 28.6759C89.3287 28.6828 89.4309 28.6624 89.5271 28.615C89.622 28.5677 89.6999 28.4987 89.7602 28.4077C89.8436 28.2817 89.8749 28.143 89.8539 27.9919C89.8333 27.8421 89.7646 27.7167 89.6478 27.6158C89.6271 27.5973 89.6057 27.5805 89.5835 27.5658C89.562 27.5514 89.5386 27.5383 89.514 27.5266C89.5136 27.5266 89.5132 27.5262 89.5128 27.5262C89.5087 27.5242 89.5047 27.5222 89.5009 27.5203ZM89.418 27.6949C89.4376 27.7042 89.4571 27.7153 89.4763 27.728C89.5722 27.7918 89.6321 27.8794 89.6563 27.9911C89.6801 28.1027 89.661 28.2056 89.5982 28.3001C89.5357 28.3945 89.4482 28.4523 89.3363 28.4735C89.2466 28.4904 89.1619 28.4801 89.0825 28.4426C89.0629 28.4331 89.0434 28.4222 89.0242 28.4095C88.9282 28.3457 88.8682 28.2579 88.8442 28.1465C88.8204 28.0349 88.8395 27.9319 88.9022 27.8374C88.9647 27.743 89.0522 27.6853 89.1641 27.6641C89.2539 27.6471 89.3384 27.6574 89.418 27.6949Z" fill="#079F3D"/>
<path d="M92.0714 28.5934L91.5512 29.649L91.7212 29.733L91.8875 29.3953L91.9972 29.4496L92.2164 29.9774L92.4585 30.0971L92.25 29.5477C92.3462 29.5663 92.4351 29.557 92.5168 29.5194C92.5976 29.4817 92.6573 29.4235 92.696 29.3448C92.7396 29.2564 92.7458 29.163 92.7146 29.0641C92.6837 28.9668 92.6222 28.8868 92.5297 28.8247C92.5146 28.815 92.4974 28.8047 92.4781 28.7942L92.0714 28.5934ZM92.1575 28.8473L92.3863 28.9605C92.4496 28.9916 92.4944 29.037 92.5204 29.0966C92.547 29.1553 92.5476 29.2104 92.522 29.2623C92.4966 29.3141 92.4523 29.3479 92.3892 29.3632C92.3412 29.3745 92.2932 29.3721 92.2448 29.3565C92.2299 29.3517 92.2149 29.3456 92.2 29.3382L91.9714 29.2251L92.1575 28.8473Z" fill="#079F3D"/>
<path d="M97.8724 32.2411C97.7379 32.1776 97.5992 32.165 97.456 32.2032C97.3101 32.2423 97.1953 32.3249 97.1119 32.4509C97.0516 32.5417 97.0183 32.641 97.0119 32.7484C97.0054 32.8543 97.0266 32.9561 97.0758 33.0538C97.1242 33.1509 97.1949 33.2304 97.2885 33.2926C97.3155 33.3105 97.3431 33.3261 97.3714 33.3394C97.4411 33.3725 97.5147 33.3915 97.5921 33.3967C97.7002 33.4036 97.8024 33.3834 97.8988 33.3357C97.9938 33.2885 98.0714 33.2195 98.1319 33.1285C98.2154 33.0025 98.2466 32.864 98.2256 32.7128C98.2049 32.5631 98.1361 32.4377 98.0194 32.3368C97.9988 32.318 97.9774 32.3015 97.9553 32.2868C97.9335 32.2724 97.9103 32.2593 97.8855 32.2476C97.8851 32.2474 97.8847 32.2472 97.8843 32.247C97.8803 32.245 97.8764 32.2432 97.8724 32.2411ZM97.7895 32.4157C97.8093 32.4252 97.8286 32.4361 97.8478 32.4488C97.9438 32.5126 98.0039 32.6004 98.0279 32.7118C98.0518 32.8235 98.0325 32.9264 97.9698 33.0209C97.9073 33.1153 97.82 33.1733 97.7081 33.1943C97.6183 33.2112 97.5337 33.2009 97.4542 33.1634C97.4345 33.1541 97.4149 33.143 97.396 33.1303C97.2998 33.0665 97.2399 32.9789 97.2159 32.8673C97.1919 32.7558 97.2113 32.6527 97.2738 32.5584C97.3365 32.4638 97.4238 32.406 97.5357 32.3848C97.6254 32.3679 97.7101 32.3782 97.7895 32.4157Z" fill="#079F3D"/>
<path d="M81.7612 25.6048L81.6082 25.6038L81.1386 26.2549L80.6777 25.5977L80.5247 25.5967L80.5168 26.804L80.7142 26.8054L80.7196 25.9687L81.1366 26.563L81.5614 25.9742L81.556 26.8108L81.7534 26.812L81.7612 25.6048Z" fill="#079F3D"/>
<path d="M79.9807 25.4843L79.0715 25.4784L79.0635 26.6857L79.9726 26.6917L79.974 26.4972L79.2593 26.4925L79.2615 26.1538L79.8216 26.1575L79.8228 25.9705L79.2627 25.9669L79.2645 25.6742L79.9793 25.6789L79.9807 25.4843Z" fill="#079F3D"/>
<path d="M78.0572 25.5669C77.9882 25.5354 77.9124 25.5146 77.8293 25.5049C77.7989 25.5015 77.7682 25.4999 77.7376 25.4997L77.4468 25.4976L77.4388 26.7051L77.7297 26.7023C77.8561 26.7033 77.9727 26.6768 78.0791 26.6235C78.1846 26.57 78.2683 26.4976 78.3302 26.4059C78.3909 26.3143 78.4217 26.214 78.4225 26.1048C78.4233 25.9536 78.3677 25.821 78.2552 25.7067C78.1973 25.6476 78.1314 25.601 78.0572 25.5669ZM77.9731 25.7437C77.9773 25.7455 77.9814 25.7473 77.9854 25.7495C78.0606 25.7867 78.1201 25.8365 78.1636 25.8991C78.207 25.9619 78.2286 26.0299 78.2281 26.1034C78.2275 26.177 78.2052 26.2453 78.1608 26.3082C78.1166 26.3704 78.056 26.4195 77.9793 26.4558C77.9035 26.4909 77.8209 26.5083 77.7309 26.5077H77.7295L77.6329 26.5101L77.6384 25.692L77.7364 25.6926C77.8213 25.6932 77.9003 25.7102 77.9731 25.7437Z" fill="#079F3D"/>
<path d="M76.4952 25.6389C76.4522 25.6194 76.405 25.6058 76.3536 25.5986C76.3353 25.5964 76.3149 25.5947 76.2925 25.5935L75.8272 25.5905L75.8193 26.7979L76.0137 26.7992L76.0161 26.413L76.1417 26.4138L76.5798 26.803L76.8571 26.8048L76.4189 26.3912C76.5159 26.3652 76.5938 26.3167 76.6524 26.2457C76.7101 26.1746 76.7391 26.0941 76.7397 26.0041C76.7403 25.903 76.7042 25.8139 76.6313 25.7368C76.5919 25.6953 76.5466 25.6628 76.4952 25.6389ZM76.4044 25.8137C76.4268 25.824 76.4476 25.8374 76.4667 25.8537C76.5175 25.8959 76.5425 25.9468 76.5423 26.0059C76.5419 26.065 76.5161 26.1161 76.4647 26.1587C76.4135 26.2003 76.3516 26.2207 76.2792 26.2203L76.0173 26.2184L76.0203 25.7865L76.282 25.7881C76.327 25.7885 76.3677 25.797 76.4044 25.8137Z" fill="#079F3D"/>
<path d="M74.9497 25.8045C74.8949 25.7792 74.8354 25.7625 74.7711 25.7538C74.7434 25.7495 74.7164 25.7473 74.69 25.7471C74.6634 25.7471 74.6364 25.7487 74.6088 25.7528C74.4555 25.7711 74.3281 25.8371 74.2263 25.951C74.1257 26.0638 74.0746 26.1956 74.0738 26.3468C74.073 26.4562 74.0994 26.5575 74.1529 26.6508C74.2053 26.743 74.2789 26.8165 74.3735 26.8714C74.391 26.8817 74.4091 26.8912 74.4275 26.8997C74.5061 26.9356 74.591 26.954 74.6819 26.9546C74.7942 26.9554 74.8981 26.9289 74.9933 26.8754C75.0874 26.822 75.1618 26.7489 75.2167 26.6562C75.2703 26.5646 75.2975 26.4643 75.2981 26.3549C75.2991 26.2037 75.2495 26.0707 75.1493 25.9554C75.0916 25.8894 75.0251 25.839 74.9497 25.8045ZM74.8628 25.9788C74.9064 25.9988 74.9467 26.0269 74.9834 26.0632C75.0644 26.1436 75.1046 26.2402 75.1037 26.3537C75.1031 26.4669 75.0616 26.5632 74.9793 26.6423C74.8973 26.7216 74.7985 26.7608 74.6834 26.76C74.62 26.7596 74.562 26.7473 74.5092 26.7231C74.4656 26.7029 74.4253 26.6748 74.3886 26.6385C74.3075 26.5583 74.2674 26.4615 74.2682 26.3482C74.2688 26.2348 74.3103 26.1385 74.3926 26.0594C74.4747 25.9803 74.5733 25.9409 74.6886 25.9417C74.7519 25.9421 74.8098 25.9546 74.8628 25.9788Z" fill="#079F3D"/>
<path d="M87.4582 33.5445L87.5771 33.8832L87.9929 33.8884L87.661 34.1227L87.7965 34.5093L87.4616 34.2632L87.1314 34.4964L87.2616 34.1153L86.934 33.8745L87.3435 33.8797L87.4582 33.5445Z" fill="white"/>
<path d="M85.9224 36.1374L86.0411 36.4759L86.4571 36.4813L86.1252 36.7156L86.2607 37.1022L85.9258 36.8559L85.5956 37.0891L85.7258 36.7082L85.3982 36.4672L85.8075 36.4724L85.9224 36.1374Z" fill="white"/>
<path d="M80.6505 37.1447L80.7694 37.4834L81.1852 37.4887L80.8533 37.723L80.9888 38.1096L80.6541 37.8634L80.3236 38.0966L80.4541 37.7157L80.1264 37.4747L80.5355 37.4799L80.6505 37.1447Z" fill="white"/>
<path d="M79.1044 34.7729L79.2133 35.0746L79.5851 35.0761L79.2903 35.2882L79.4145 35.6328L79.1133 35.4154L78.8197 35.6265L78.9332 35.2848L78.6385 35.072L79.0044 35.0734L79.1044 34.7729Z" fill="white"/>
<path d="M76.5216 33.36L76.6403 33.6987L77.0561 33.7039L76.7244 33.9381L76.8599 34.3248L76.525 34.0785L76.1946 34.3119L76.325 33.931L75.9974 33.69L76.4067 33.695L76.5216 33.36Z" fill="white"/>
<path d="M78.7246 36.1598L78.8042 36.383L79.0786 36.3852L78.8603 36.5411L78.9512 36.7958L78.7292 36.6344L78.5118 36.7895L78.5967 36.5374L78.3796 36.3796L78.6498 36.3816L78.7246 36.1598Z" fill="white"/>
<path d="M80.9374 30.7135L81.0564 31.0522L81.4721 31.0577L81.1402 31.2918L81.2757 31.6786L80.9408 31.4323L80.6104 31.6654L80.7408 31.2846L80.4132 31.0435L80.8225 31.0488L80.9374 30.7135Z" fill="white"/>
<path d="M77.6846 32.8975L77.7368 33.0655L77.9404 33.0753L77.7737 33.1843L77.8334 33.3761L77.6737 33.2497L77.5077 33.3581L77.5783 33.1738L77.422 33.0499L77.6225 33.0598L77.6846 32.8975Z" fill="white"/>
<path d="M74.8009 34.6641L74.8969 34.9317L75.2263 34.9336L74.9648 35.1211L75.0745 35.4267L74.8076 35.2335L74.5473 35.4202L74.6485 35.1176L74.3874 34.9285L74.7118 34.9303L74.8009 34.6641Z" fill="white"/>
<path d="M75.2409 27.9107L75.3596 28.2492L75.7754 28.2547L75.4437 28.4888L75.5792 28.8755L75.2443 28.6293L74.9138 28.8624L75.0443 28.4815L74.7166 28.2405L75.1259 28.2458L75.2409 27.9107Z" fill="white"/>
<path d="M85.9222 40.8141L85.9595 40.9119L86.0807 40.9101L85.9861 40.9811L86.0287 41.0926L85.9291 41.0236L85.8347 41.0942L85.8696 40.9822L85.7722 40.9146L85.8913 40.9128L85.9222 40.8141Z" fill="white"/>
<path d="M88.8057 37.7585L88.8948 37.9738L89.1645 37.9625L88.9577 38.1262L89.0593 38.3721L88.8333 38.2243L88.6274 38.3873L88.6984 38.1357L88.4774 37.9911L88.7429 37.9799L88.8057 37.7585Z" fill="white"/>
<path d="M89.837 39.069L89.9557 39.4077L90.3717 39.4131L90.0398 39.6472L90.1753 40.0339L89.8404 39.7877L89.5101 40.0208L89.6404 39.64L89.3127 39.399L89.722 39.4042L89.837 39.069Z" fill="white"/>
<path d="M90.9878 38.1243L91.0584 38.3407L91.3219 38.3501L91.1082 38.4937L91.1885 38.7408L90.9798 38.5799L90.7671 38.7229L90.8552 38.4834L90.6509 38.326L90.9102 38.3352L90.9878 38.1243Z" fill="white"/>
<path d="M92.4884 38.8485L92.5894 39.1314L92.9372 39.1341L92.6605 39.3315L92.7757 39.6545L92.4944 39.4499L92.219 39.6464L92.3264 39.3272L92.0512 39.127L92.3936 39.1295L92.4884 38.8485Z" fill="white"/>
<path d="M92.4507 40.2603L92.5295 40.4873L92.8077 40.4917L92.5851 40.6479L92.6751 40.907L92.4515 40.7415L92.2299 40.8969L92.3178 40.6422L92.0988 40.4802L92.3728 40.4845L92.4507 40.2603Z" fill="white"/>
<path d="M92.4289 37.6266L92.5081 37.8453L92.7775 37.846L92.5642 37.9999L92.6543 38.2495L92.4357 38.0922L92.2232 38.2454L92.3053 37.9978L92.0913 37.8438L92.3567 37.8445L92.4289 37.6266Z" fill="white"/>
<path d="M93.7836 37.8486L93.8675 38.0899L94.1631 38.0946L93.9266 38.2605L94.0221 38.5359L93.7844 38.3599L93.5487 38.525L93.6425 38.2544L93.41 38.0822L93.7011 38.0869L93.7836 37.8486Z" fill="white"/>
<path d="M94.8117 37.1126L94.9256 37.4047L95.2887 37.3969L95.0061 37.6113L95.1359 37.9448L94.8363 37.7399L94.5548 37.9534L94.6572 37.6169L94.3639 37.4164L94.7214 37.4087L94.8117 37.1126Z" fill="white"/>
<path d="M95.1236 34.7973L95.2424 35.136L95.6581 35.1412L95.3264 35.3756L95.4617 35.7623L95.1268 35.5161L94.7966 35.7492L94.927 35.3683L94.5994 35.1273L95.0085 35.1326L95.1236 34.7973Z" fill="white"/>
<path d="M95.6218 36.0354L95.7267 36.3303L96.0892 36.3336L95.8009 36.539L95.9204 36.8756L95.6275 36.6621L95.3402 36.8667L95.4525 36.534L95.1658 36.3251L95.5228 36.3281L95.6218 36.0354Z" fill="white"/>
<path d="M96.911 35.1334L96.9905 35.3669L97.2764 35.3732L97.0469 35.532L97.1377 35.7987L96.909 35.6273L96.6806 35.7856L96.7725 35.5248L96.5487 35.357L96.83 35.3631L96.911 35.1334Z" fill="white"/>
<path d="M85.4327 34.8938L85.3218 34.9731L85.3639 35.1255L85.2433 35.0292L85.1167 35.1199L85.171 34.9713L85.051 34.8754L85.2036 34.8825L85.2566 34.7374L85.2982 34.8873L85.4327 34.8938Z" fill="white"/>
<path d="M84.6042 33.6928L84.6848 33.9217L84.9661 33.9247L84.7421 34.0836L84.834 34.3448L84.6074 34.1787L84.3842 34.3367L84.4719 34.079L84.2501 33.9165L84.5267 33.9195L84.6042 33.6928Z" fill="white"/>
<path d="M85.9381 32.314L86.0569 32.6527L86.4726 32.6579L86.1407 32.8923L86.2762 33.2788L85.9415 33.0326L85.6111 33.2659L85.7415 32.8848L85.4139 32.644L85.8232 32.6492L85.9381 32.314Z" fill="white"/>
<path d="M89.4787 29.7414L89.5541 29.976L89.8394 29.9871L89.6075 30.1419L89.6936 30.4095L89.4684 30.2347L89.2375 30.3888L89.3337 30.1298L89.1131 29.9588L89.3938 29.9695L89.4787 29.7414Z" fill="white"/>
<path d="M90.0767 26.2077L90.1955 26.5464L90.6112 26.5517L90.2795 26.786L90.415 27.1725L90.0801 26.9265L89.7497 27.1596L89.8801 26.7787L89.5525 26.5377L89.9618 26.543L90.0767 26.2077Z" fill="white"/>
<g filter="url(#filter0_d_3_375)">
<path d="M58.136 1.19199C61.784 1.19199 65.016 1.67199 67.832 2.63198C70.648 3.52798 73.048 4.77599 75.032 6.37599C77.016 7.97599 78.52 9.86399 79.544 12.04C80.568 14.216 81.08 16.552 81.08 19.048C81.08 25.768 77.272 32.168 69.656 38.248L57.08 48.328H80.12C80.504 49.032 80.856 49.928 81.176 51.016C81.56 52.104 81.752 53.288 81.752 54.568C81.752 56.872 81.24 58.536 80.216 59.56C79.192 60.52 77.848 61 76.184 61H42.872C41.464 60.04 40.344 58.824 39.512 57.352C38.744 55.816 38.36 54.024 38.36 51.976C38.36 49.8 38.808 47.976 39.704 46.504C40.6 44.968 41.592 43.752 42.68 42.856L55.928 31.528C57.592 30.12 58.968 28.872 60.056 27.784C61.144 26.632 62.008 25.608 62.648 24.712C63.352 23.816 63.832 22.984 64.088 22.216C64.408 21.448 64.568 20.712 64.568 20.008C64.568 18.216 63.768 16.808 62.168 15.784C60.632 14.76 58.712 14.248 56.408 14.248C53.848 14.248 51.544 14.664 49.496 15.496C47.512 16.264 45.848 17.096 44.504 17.992C43.416 17.224 42.52 16.264 41.816 15.112C41.112 13.96 40.76 12.616 40.76 11.08C40.76 7.75199 42.328 5.28799 45.464 3.68799C48.6 2.02399 52.824 1.19199 58.136 1.19199Z" fill="url(#paint2_linear_3_375)"/>
</g>
<g filter="url(#filter1_d_3_375)">
<path d="M23.752 37.864C20.936 36.904 18.376 35.944 16.072 34.984C13.768 33.96 11.784 32.744 10.12 31.336C8.456 29.928 7.144 28.264 6.184 26.344C5.288 24.36 4.84 21.96 4.84 19.144C4.84 13.704 6.92 9.35199 11.08 6.08799C15.304 2.82399 21.192 1.19199 28.744 1.19199C31.496 1.19199 34.056 1.38399 36.424 1.76799C38.792 2.15199 40.808 2.75999 42.472 3.59198C44.2 4.35999 45.544 5.38398 46.504 6.66398C47.464 7.87998 47.944 9.31998 47.944 10.984C47.944 12.648 47.56 14.088 46.792 15.304C46.024 16.456 45.096 17.448 44.008 18.28C42.6 17.384 40.712 16.616 38.344 15.976C35.976 15.272 33.384 14.92 30.568 14.92C27.688 14.92 25.576 15.336 24.232 16.168C22.888 16.936 22.216 17.928 22.216 19.144C22.216 20.104 22.632 20.904 23.464 21.544C24.296 22.12 25.544 22.664 27.208 23.176L32.296 24.808C38.312 26.728 42.92 29.192 46.12 32.2C49.384 35.144 51.016 39.176 51.016 44.296C51.016 49.736 48.872 54.152 44.584 57.544C40.296 60.872 33.992 62.536 25.672 62.536C22.728 62.536 19.976 62.28 17.416 61.768C14.92 61.32 12.712 60.648 10.792 59.752C8.936 58.792 7.464 57.64 6.376 56.296C5.352 54.888 4.84 53.288 4.84 51.496C4.84 49.64 5.384 48.072 6.472 46.792C7.56 45.448 8.744 44.424 10.024 43.72C11.816 45.128 13.992 46.344 16.552 47.368C19.176 48.392 22.024 48.904 25.096 48.904C28.232 48.904 30.44 48.424 31.72 47.464C33 46.504 33.64 45.384 33.64 44.104C33.64 42.824 33.128 41.864 32.104 41.224C31.08 40.52 29.64 39.848 27.784 39.208L23.752 37.864Z" fill="url(#paint3_linear_3_375)"/>
</g>
<defs>
<filter id="filter0_d_3_375" x="34.36" y="0.191986" width="51.392" height="67.808" filterUnits="userSpaceOnUse" color-interpolation-filters="sRGB">
<feFlood flood-opacity="0" result="BackgroundImageFix"/>
<feColorMatrix in="SourceAlpha" type="matrix" values="0 0 0 0 0 0 0 0 0 0 0 0 0 0 0 0 0 0 127 0" result="hardAlpha"/>
<feOffset dy="3"/>
<feGaussianBlur stdDeviation="2"/>
<feComposite in2="hardAlpha" operator="out"/>
<feColorMatrix type="matrix" values="0 0 0 0 0 0 0 0 0 0 0 0 0 0 0 0 0 0 0.2 0"/>
<feBlend mode="normal" in2="BackgroundImageFix" result="effect1_dropShadow_3_375"/>
<feBlend mode="normal" in="SourceGraphic" in2="effect1_dropShadow_3_375" result="shape"/>
</filter>
<filter id="filter1_d_3_375" x="0.839996" y="0.191986" width="54.176" height="69.344" filterUnits="userSpaceOnUse" color-interpolation-filters="sRGB">
<feFlood flood-opacity="0" result="BackgroundImageFix"/>
<feColorMatrix in="SourceAlpha" type="matrix" values="0 0 0 0 0 0 0 0 0 0 0 0 0 0 0 0 0 0 127 0" result="hardAlpha"/>
<feOffset dy="3"/>
<feGaussianBlur stdDeviation="2"/>
<feComposite in2="hardAlpha" operator="out"/>
<feColorMatrix type="matrix" values="0 0 0 0 0 0 0 0 0 0 0 0 0 0 0 0 0 0 0.2 0"/>
<feBlend mode="normal" in2="BackgroundImageFix" result="effect1_dropShadow_3_375"/>
<feBlend mode="normal" in="SourceGraphic" in2="effect1_dropShadow_3_375" result="shape"/>
</filter>
<linearGradient id="paint0_linear_3_375" x1="86.25" y1="1" x2="86.25" y2="61" gradientUnits="userSpaceOnUse">
<stop stop-color="#079F3D"/>
<stop offset="1" stop-color="#046B28"/>
</linearGradient>
<linearGradient id="paint1_linear_3_375" x1="85.9698" y1="11" x2="85.9698" y2="50.7234" gradientUnits="userSpaceOnUse">
<stop stop-color="#FEE000"/>
<stop offset="1" stop-color="#AB9807"/>
</linearGradient>
<linearGradient id="paint2_linear_3_375" x1="86" y1="35.5" x2="35" y2="35.5" gradientUnits="userSpaceOnUse">
<stop stop-color="#DF3535"/>
<stop offset="1" stop-color="#A41717"/>
</linearGradient>
<linearGradient id="paint3_linear_3_375" x1="54" y1="35.5" x2="0.999999" y2="35.5" gradientUnits="userSpaceOnUse">
<stop stop-color="#DF3535"/>
<stop offset="1" stop-color="#A41717"/>
</linearGradient>
</defs>
</svg>
